<?xml version="1.0" encoding="UTF-8"?>
<svg id="Layer_1" data-name="Layer 1" xmlns="http://www.w3.org/2000/svg" xmlns:xlink="http://www.w3.org/1999/xlink" viewBox="0 0 135.46 38.46">
  <defs>
    <style>
      .cls-1 {
        fill: url(#linear-gradient);
      }

      .cls-1, .cls-2, .cls-3 {
        stroke-width: 0px;
      }

      .cls-2 {
        fill: #fff;
      }

      .cls-3 {
        fill: url(#linear-gradient-2);
      }
    </style>
    <linearGradient id="linear-gradient" x1="106.38" y1="41.06" x2="134.59" y2="-.87" gradientUnits="userSpaceOnUse">
      <stop offset=".11" stop-color="#f6a01e"/>
      <stop offset=".94" stop-color="#e93e3a"/>
    </linearGradient>
    <linearGradient id="linear-gradient-2" x1="104.69" y1="39.92" x2="132.89" y2="-2.01" gradientUnits="userSpaceOnUse">
      <stop offset=".1" stop-color="#f6a01e"/>
      <stop offset=".94" stop-color="#e93e3a"/>
    </linearGradient>
  </defs>
  <g>
    <path class="cls-2" d="M4,31.39V10.54H0v-4.55h13.9v4.55h-3.98v20.84h-5.92Z"/>
    <path class="cls-2" d="M16.02,31.39V5.99h11.17v4.55h-5.25v5.61h4.92v4.38h-4.92v6.31h5.75v4.55h-11.66Z"/>
    <path class="cls-2" d="M34.34,22.1v4.17c0,.39.06.65.18.78.12.13.35.2.69.2s.55-.06.67-.19c.11-.13.17-.39.17-.79V5.99h5.95v19.01c0,2.59-.47,4.35-1.41,5.28s-2.65,1.4-5.14,1.4-4.05-.4-4.96-1.19c-.91-.79-1.37-2.29-1.37-4.51v-3.9h5.22Z"/>
    <path class="cls-2" d="M44.36,31.39l3.78-25.39h9.46l3.88,25.39h-6.05l-.7-6.24h-3.75l-.7,6.24h-5.92ZM51.5,20.92h2.68l-1.3-11.99-1.39,11.99Z"/>
    <path class="cls-2" d="M73.07,24.97c0-.88-.16-1.48-.49-1.81-.32-.33-.93-.5-1.82-.5h-.97v8.72h-5.92V5.99h6.16c3.65,0,6.06.46,7.23,1.39,1.17.92,1.76,2.63,1.76,5.13v2.91c0,1.47-.32,2.59-.96,3.36-.64.77-1.68,1.29-3.13,1.55,1.35.19,2.34.65,2.98,1.37.64.72.97,1.73.97,3.04v6.65h-5.81v-6.41ZM71.22,10.47h-1.44v7.85h1.44c.76,0,1.27-.13,1.53-.38s.38-.73.38-1.43v-4.21c0-.71-.13-1.19-.38-1.44-.26-.26-.77-.38-1.53-.38Z"/>
    <path class="cls-2" d="M81.17,31.39l3.78-25.39h9.46l3.88,25.39h-6.05l-.7-6.24h-3.75l-.7,6.24h-5.92ZM88.32,20.92h2.68l-1.3-11.99-1.39,11.99Z"/>
  </g>
  <path class="cls-1" d="M135.36,15.46l-17.03.23c-.09,0-.13-.12-.06-.17l6.35-4.64s.04-.02.06-.02l3.17.17c.08,0,.12.11.06.17l-2.75,2.52c-.06.06-.02.17.06.17l4.07-.02s.05-.01.07-.03l5.07-5.19c.06-.06.02-.16-.07-.16l-6.8-.19c-.08,0-.12-.09-.07-.15l6.04-7.99c.07-.09-.05-.2-.13-.13l-23.96,18.74c-.07.06-.03.17.06.17l22.55-.18s.05,0,.06-.03l3.31-3.11c.06-.06.02-.17-.07-.16Z"/>
  <path class="cls-3" d="M107.61,19.71s-.05,0-.06.03l-3.3,3.11c-.06.06-.02.17.07.16l17.03-.26c.09,0,.13.12.06.17l-6.34,4.65s-.04.02-.06.02l-3.17-.16c-.08,0-.12-.11-.06-.17l2.75-2.53c.06-.06.02-.17-.07-.17l-4.07.03s-.05.01-.07.03l-5.06,5.19c-.06.06-.02.16.07.16l6.8.18c.08,0,.12.09.07.15l-6.02,8c-.07.09.05.2.13.13l23.93-18.78c.07-.06.03-.17-.06-.17l-22.55.21Z"/>
</svg>